<svg width="30" height="30"  fill="none" xmlns="http://www.w3.org/2000/svg">
<ellipse cx="0.30304" cy="2.42612" rx="0.30304" ry="0.303076" fill="white"/>
<ellipse cx="5.75226" cy="2.42612" rx="0.30304" ry="0.303076" fill="white"/>
<ellipse cx="11.2132" cy="2.42612" rx="0.30304" ry="0.303076" fill="white"/>
<ellipse cx="16.662" cy="2.42783" rx="1.81824" ry="1.81846" fill="white"/>
<ellipse cx="22.1135" cy="2.42622" rx="2.12128" ry="2.12153" fill="white"/>
<ellipse cx="27.5767" cy="2.42461" rx="2.42432" ry="2.42461" fill="white"/>
<ellipse cx="0.30304" cy="7.88511" rx="0.30304" ry="0.303076" fill="white"/>
<ellipse cx="5.75226" cy="7.88511" rx="0.30304" ry="0.303076" fill="white"/>
<ellipse cx="11.2066" cy="7.87476" rx="1.5152" ry="1.51538" fill="white"/>
<ellipse cx="16.662" cy="7.88291" rx="1.81824" ry="1.81846" fill="white"/>
<ellipse cx="22.1135" cy="7.88325" rx="2.12128" ry="2.12153" fill="white"/>
<ellipse cx="27.5783" cy="7.88325" rx="2.12128" ry="2.12153" fill="white"/>
<ellipse cx="0.30304" cy="13.3402" rx="0.30304" ry="0.303076" fill="white"/>
<ellipse cx="5.75226" cy="13.3402" rx="0.30304" ry="0.303076" fill="white"/>
<ellipse cx="11.2122" cy="13.3354" rx="1.21216" ry="1.2123" fill="white"/>
<ellipse cx="16.6715" cy="13.3318" rx="1.5152" ry="1.51538" fill="white"/>
<ellipse cx="22.1229" cy="13.3321" rx="1.81824" ry="1.81846" fill="white"/>
<ellipse cx="27.5721" cy="13.3321" rx="1.81824" ry="1.81846" fill="white"/>
<ellipse cx="0.30304" cy="18.7914" rx="0.30304" ry="0.303076" fill="white"/>
<ellipse cx="5.75452" cy="18.7937" rx="0.606081" ry="0.606152" fill="white"/>
<ellipse cx="11.2138" cy="18.794" rx="0.909121" ry="0.909228" fill="white"/>
<ellipse cx="16.6614" cy="18.7904" rx="1.21216" ry="1.2123" fill="white"/>
<ellipse cx="22.1207" cy="18.7888" rx="1.5152" ry="1.51538" fill="white"/>
<ellipse cx="27.5765" cy="18.7914" rx="0.30304" ry="0.303076" fill="white"/>
<ellipse cx="0.30304" cy="24.2406" rx="0.30304" ry="0.303076" fill="white"/>
<ellipse cx="5.75452" cy="24.2487" rx="0.606081" ry="0.606152" fill="white"/>
<ellipse cx="11.2076" cy="24.2487" rx="0.606081" ry="0.606152" fill="white"/>
<ellipse cx="16.6624" cy="24.2406" rx="0.30304" ry="0.303076" fill="white"/>
<ellipse cx="22.1234" cy="24.2406" rx="0.30304" ry="0.303076" fill="white"/>
<ellipse cx="27.5765" cy="24.2406" rx="0.30304" ry="0.303076" fill="white"/>
<ellipse cx="0.30304" cy="29.6976" rx="0.30304" ry="0.303076" fill="white"/>
<ellipse cx="5.75226" cy="29.6976" rx="0.30304" ry="0.303076" fill="white"/>
<ellipse cx="11.2132" cy="29.6976" rx="0.30304" ry="0.303076" fill="white"/>
<ellipse cx="16.6624" cy="29.6976" rx="0.30304" ry="0.303076" fill="white"/>
<ellipse cx="22.1234" cy="29.6976" rx="0.30304" ry="0.303076" fill="white"/>
<ellipse cx="27.5765" cy="29.6976" rx="0.30304" ry="0.303076" fill="white"/>
</svg>
